<?xml version="1.0" standalone="no"?>
<!DOCTYPE svg PUBLIC "-//W3C//DTD SVG 20010904//EN"
 "http://www.w3.org/TR/2001/REC-SVG-20010904/DTD/svg10.dtd">
<svg version="1.0" xmlns="http://www.w3.org/2000/svg"
 width="512.000000pt" height="512.000000pt" viewBox="0 0 512.000000 512.000000"
 preserveAspectRatio="xMidYMid meet">
<metadata>
Created by potrace 1.14, written by Peter Selinger 2001-2017
</metadata>
<g transform="translate(0.000000,512.000000) scale(0.100000,-0.100000)"
fill="#000000" stroke="none">
<path d="M3730 4480 c-29 -33 -57 -60 -63 -60 -7 0 -25 7 -41 15 -15 8 -35 15
-42 15 -8 0 -23 9 -35 21 -18 18 -23 19 -42 6 -29 -19 -29 -56 -1 -118 l24
-50 -25 -23 c-14 -13 -25 -33 -25 -45 0 -14 -6 -21 -19 -21 -22 0 -30 -24 -21
-60 5 -21 12 -25 40 -25 19 0 59 8 87 18 62 22 92 15 99 -21 3 -15 21 -45 40
-67 l35 -40 37 20 c23 12 37 28 38 40 5 105 29 145 90 145 17 0 43 9 57 20 14
11 30 20 36 20 6 0 11 8 11 19 0 25 -62 54 -120 56 -25 1 -51 3 -57 4 -9 1
-12 24 -9 84 1 45 1 88 -2 95 -9 26 -42 9 -92 -48z"/>
<path d="M3330 4325 c-19 -7 -80 -15 -135 -19 -121 -7 -113 -6 -266 -51 -68
-20 -133 -39 -143 -42 -10 -3 -37 -24 -58 -47 -22 -22 -44 -42 -49 -42 -5 -1
-22 -2 -38 -3 -33 -1 -168 -102 -197 -146 -21 -33 -93 -246 -102 -304 -4 -28
-13 -45 -22 -46 -8 -2 -24 -4 -35 -6 -11 -1 -30 1 -43 5 -16 5 -29 3 -41 -8
-33 -30 -133 -86 -154 -86 -19 0 -87 -62 -87 -80 0 -5 -14 -11 -31 -15 -17 -4
-53 -27 -80 -51 -27 -24 -54 -44 -60 -44 -6 0 -29 -16 -52 -35 -23 -19 -83
-68 -134 -110 -51 -41 -97 -83 -102 -94 -6 -10 -35 -43 -64 -74 l-54 -55 -44
29 c-57 38 -75 53 -86 73 -5 9 -22 19 -38 22 -16 3 -41 13 -57 22 -21 12 -33
14 -45 6 -32 -20 -38 -40 -25 -91 6 -26 14 -82 16 -123 6 -94 15 -150 28 -174
26 -49 26 -73 0 -128 -22 -45 -26 -67 -26 -144 l-1 -92 47 -69 c64 -97 115
-138 233 -185 109 -43 138 -50 172 -37 12 4 25 4 28 0 4 -7 155 -15 230 -13
11 1 64 -8 118 -19 53 -11 124 -20 157 -20 33 -1 63 -6 67 -12 9 -15 -42 -52
-91 -67 -34 -10 -198 -77 -271 -110 -11 -5 -137 -57 -280 -116 -143 -59 -291
-122 -330 -140 -38 -18 -110 -49 -159 -69 -80 -32 -203 -93 -339 -169 -26 -14
-67 -37 -92 -51 -63 -34 -196 -128 -229 -162 -34 -33 -49 -69 -41 -94 11 -35
93 -64 170 -62 66 3 221 23 252 34 18 6 45 9 60 8 16 -2 37 2 48 8 11 5 34 13
50 17 17 4 49 16 73 27 35 17 42 26 42 50 0 18 -7 32 -20 39 -22 12 -98 4
-117 -11 -11 -10 -77 -24 -158 -35 -35 -4 -74 -14 -175 -43 -31 -9 -87 2 -106
21 -12 11 -10 18 12 42 27 28 157 116 173 116 9 0 103 59 129 81 20 17 191 99
205 99 8 0 26 11 42 24 15 13 46 29 69 36 22 6 101 41 174 76 73 35 138 64
145 64 8 0 38 13 68 29 30 16 84 41 122 55 37 14 82 32 100 40 58 27 235 96
245 96 6 0 26 9 45 20 19 12 45 23 58 25 12 3 27 9 33 15 5 5 19 10 29 10 18
0 18 -2 -3 -38 -12 -20 -28 -54 -36 -74 -7 -21 -31 -64 -52 -95 -45 -67 -102
-173 -102 -190 0 -23 -53 -53 -138 -78 -48 -14 -102 -32 -120 -40 -18 -8 -43
-15 -55 -15 -12 0 -37 -9 -55 -20 -18 -11 -49 -20 -68 -20 -46 0 -97 -49 -92
-89 2 -20 11 -27 41 -34 26 -6 46 -6 60 1 12 6 51 19 87 28 36 8 70 19 75 24
6 4 37 15 70 25 33 9 76 25 97 36 20 10 41 19 45 19 4 0 6 -41 3 -91 -5 -88 1
-127 21 -140 14 -8 0 -39 -17 -39 -8 0 -34 -10 -56 -21 -25 -13 -59 -21 -85
-21 -30 1 -46 -4 -55 -17 -18 -24 -54 -43 -97 -48 -20 -3 -47 -11 -61 -18 -46
-24 -175 -73 -200 -76 -14 -2 -40 -14 -58 -27 -20 -14 -59 -27 -100 -34 -37
-6 -78 -16 -92 -23 -14 -7 -58 -20 -97 -28 -86 -18 -189 -75 -193 -107 -8 -51
37 -74 145 -76 44 -1 91 -5 105 -8 34 -10 86 -9 108 3 9 5 46 8 82 6 36 -1 75
2 88 6 43 16 77 22 167 26 50 3 95 9 101 14 6 5 35 10 64 10 30 1 74 11 98 21
31 14 58 19 87 16 25 -3 56 1 76 9 26 11 82 14 242 14 120 -1 216 3 227 9 10
5 21 22 24 37 9 44 19 115 20 151 1 17 6 32 11 32 19 0 50 -13 56 -23 7 -10 2
-61 -8 -87 -6 -16 -5 -65 3 -93 3 -9 20 -25 37 -35 27 -14 62 -17 207 -19 333
-3 502 -17 555 -46 11 -6 70 -12 130 -13 61 -1 139 -9 175 -17 48 -12 100 -14
200 -10 74 3 182 4 240 4 164 -2 172 -2 187 3 7 3 17 16 22 28 10 27 -28 111
-57 127 -20 11 -123 38 -167 44 -16 2 -48 12 -70 22 -22 10 -67 20 -100 21
-35 1 -81 11 -109 23 -27 12 -77 24 -110 28 -34 3 -76 14 -93 23 -22 12 -47
16 -73 13 -28 -4 -52 1 -80 16 -23 12 -60 21 -83 21 -47 0 -125 21 -173 46
-29 16 -31 16 -59 -10 -15 -14 -34 -26 -41 -26 -20 0 -26 17 -10 33 8 8 15 32
14 55 0 22 3 45 6 51 29 46 24 247 -7 295 -12 19 -30 81 -32 112 0 7 -23 47
-51 90 -79 121 -90 149 -56 142 9 -3 34 4 54 14 21 10 42 18 48 18 6 0 53 20
104 44 52 24 122 56 157 72 35 15 71 34 80 41 8 7 21 13 28 13 7 0 41 13 75
29 172 81 226 105 286 128 36 13 81 34 100 47 20 13 69 37 110 55 41 17 93 40
115 50 22 10 65 29 95 41 75 31 203 95 273 137 32 19 63 36 70 37 7 1 37 17
67 36 30 19 75 44 99 57 50 26 100 63 148 109 40 39 43 75 8 110 -23 23 -30
25 -93 20 -38 -3 -100 -12 -138 -20 -39 -8 -83 -17 -99 -20 -15 -3 -83 -21
-151 -41 -67 -20 -131 -38 -141 -40 -10 -2 -121 -36 -246 -76 -125 -39 -231
-68 -235 -65 -12 13 18 96 53 145 48 67 76 151 79 238 1 40 6 76 9 80 12 12 7
53 -6 53 -8 0 -40 -9 -72 -20 -32 -11 -69 -20 -82 -20 -13 0 -42 -13 -65 -30
-63 -46 -117 -37 -132 24 -4 16 -37 58 -77 96 -38 38 -69 73 -69 78 0 6 -19
22 -42 36 -65 39 -108 78 -113 104 -6 32 -14 42 -34 42 -9 0 -26 7 -37 15 -10
8 -25 15 -32 15 -7 0 -30 13 -50 29 -20 16 -58 39 -84 51 -26 12 -61 37 -78
56 -36 42 -98 75 -128 69 -12 -2 -42 3 -67 13 -35 13 -49 14 -67 4 -13 -6 -45
-10 -73 -8 -27 2 -63 5 -78 5 -28 1 -29 2 -22 44 4 23 16 60 27 82 11 22 20
54 20 70 -1 37 71 160 107 183 14 10 34 23 43 31 10 8 39 20 65 27 80 21 103
33 113 59 10 27 98 72 155 79 17 2 52 11 76 19 63 21 133 29 163 18 14 -6 28
-7 30 -2 3 5 16 7 28 7 13 -1 32 2 43 7 10 6 44 9 76 8 41 -1 62 3 78 16 20
17 21 19 6 41 -18 25 -50 27 -105 7z m1410 -1564 c4 -8 6 -20 3 -27 -15 -39
-294 -199 -565 -323 -38 -17 -97 -44 -133 -61 -36 -16 -68 -30 -71 -30 -3 0
-48 -20 -101 -45 -52 -25 -97 -45 -100 -45 -3 0 -34 -13 -70 -30 -35 -16 -67
-30 -70 -30 -3 0 -33 -13 -67 -29 -33 -16 -76 -34 -93 -41 -18 -7 -33 -16 -33
-21 0 -5 -11 -9 -24 -9 -22 0 -59 -15 -224 -91 -35 -16 -75 -32 -90 -36 -15
-3 -37 -12 -48 -20 -39 -25 -254 -102 -269 -96 -8 3 -15 11 -15 19 0 8 -3 14
-7 14 -18 1 -57 102 -57 147 l-1 47 125 1 c135 0 274 -9 303 -20 9 -4 27 -1
40 8 13 8 34 17 48 19 13 1 28 13 33 24 7 16 17 21 39 19 30 -2 125 28 136 42
3 5 18 14 34 20 15 7 27 17 27 23 0 6 24 26 54 45 62 39 113 108 126 169 5 22
13 57 17 76 l9 35 159 53 c88 29 174 54 192 57 18 2 45 11 60 19 25 12 78 25
178 43 17 2 50 13 75 24 48 19 185 55 235 61 67 8 136 2 145 -11z"/>
<path d="M1200 1322 c-40 -5 -93 -24 -107 -37 -7 -7 -17 -34 -24 -59 -16 -64
-3 -87 67 -122 l57 -28 45 25 c95 51 111 120 45 195 -20 23 -46 31 -83 26z"/>
</g>
</svg>
